#!OML:ASF X:\für Bonn\!DataBase\2005_08_12_Daniel\c3d\Daniel.ASF
:FULLY-SPECIFIED
:DEGREES
308
root 22.0517 1.28944 -0.102294 -1271.58 264.356 70.2024
lowerback 35.5935 -1.42514 -2.12878
upperback 9.06968 -3.87703 -1.48469
thorax -7.71687 -2.40907 1.06479
lowerneck 0.23492 4.66666 -6.92738
upperneck 5.61655 6.29873 -2.09474
head 1.56042 2.88668 0.566561
rclavicle 6.0033e-014 -1.01281e-013
rhumerus -400.934 13.4082 268.16
rradius 68.3868
rwrist 2.54383
rhand -10.8939 740.742
rfingers 7.12502
rthumb 15.1227 711.314
lclavicle 6.0033e-014 -1.01281e-013
lhumerus -389.231 -15.9959 -273.891
lradius 104.641
lwrist 8.53922
lhand -21.9364 -736.327
lfingers 7.12502
lthumb 4.47022 13.6061
rfemur -0.414735 -14.3609 1.41018
rtibia 76.4704
rfoot 367.116 17.1794
rtoes 2.05592
lfemur -29.9906 -0.297346 -13.3308
ltibia 113.278
lfoot 27.3035 -0.471737
ltoes 1.54999
309
root 22.039 1.28836 -0.0991881 -1272.15 264.314 70.8979
lowerback 35.5026 -1.43956 -2.22954
upperback 8.94762 -3.9156 -1.46124
thorax -7.81034 -2.41609 1.15738
lowerneck -0.0998113 4.55857 -6.98816
upperneck 5.64175 6.18312 -1.87458
head 1.62074 2.8329 0.655301
rclavicle -3.37934e-014 -6.4605e-014
rhumerus -400.709 12.6278 268.59
rradius 67.1894
rwrist 2.95035
rhand -12.2031 740.555
rfingers 7.12502
rthumb 13.8612 711.037
lclavicle -3.37934e-014 -6.4605e-014
lhumerus -389.668 -15.5073 -273.693
lradius 103.966
lwrist 8.2972
lhand -22.0348 -735.96
lfingers 7.12502
lthumb 4.37514 13.9747
rfemur -0.6435 -14.4009 1.36433
rtibia 76.6591
rfoot 367.301 17.1478
rtoes 1.84536
lfemur -29.7798 -0.988173 -13.5851
ltibia 112.413
lfoot 27.1397 -0.413526
ltoes 1.26491
310
root 22.0253 1.28896 -0.096154 -1272.46 264.289 71.3273
lowerback 35.3978 -1.44442 -2.31977
upperback 8.84089 -3.93646 -1.42226
thorax -7.88149 -2.41597 1.2532
lowerneck -0.417611 4.45291 -7.0411
upperneck 5.64809 6.06836 -1.66332
head 1.67325 2.78052 0.739224
rclavicle -2.94201e-014 6.3959e-014
rhumerus -400.472 11.9027 269.022
rradius 65.9332
rwrist 3.36866
rhand -13.5515 740.397
rfingers 7.12502
rthumb 12.5615 710.794
lclavicle -2.94201e-014 6.3959e-014
lhumerus -390.119 -15.0448 -273.485
lradius 103.24
lwrist 8.0536
lhand -22.2116 -735.595
lfingers 7.12502
lthumb 4.2044 14.3431
rfemur -0.847742 -14.4071 1.3685
rtibia 76.8192
rfoot 367.469 17.0758
rtoes 1.34254
lfemur -29.467 -1.62807 -13.8011
ltibia 111.452
lfoot 26.95 -0.381324
ltoes 1.06476
311
root 22.0096 1.28823 -0.0929285 -1272.88 264.252 71.8866
lowerback 35.2816 -1.45703 -2.41049
upperback 8.72911 -3.96793 -1.39928
thorax -7.95472 -2.42004 1.33612
lowerneck -0.758287 4.34927 -7.07317
upperneck 5.69913 5.95984 -1.46277
head 1.7456 2.72979 0.818092
rclavicle 7.79236e-014 -7.86193e-014
rhumerus -400.235 11.2051 269.391
rradius 64.6075
rwrist 3.8483
rhand -14.8715 740.232
rfingers 7.12502
rthumb 11.2887 710.556
lclavicle 7.79236e-014 -7.86193e-014
lhumerus -390.562 -14.5582 -273.276
lradius 102.413
lwrist 7.75602
lhand -22.3738 -735.223
lfingers 7.12502
lthumb 4.0478 14.7187
rfemur -1.07772 -14.4142 1.38215
rtibia 76.9676
rfoot 367.6 16.9564
rtoes 0.605943
lfemur -29.1146 -2.2855 -14.0484
ltibia 110.389
lfoot 26.7633 -0.294447
ltoes 1.09274
312
root 21.9927 1.28767 -0.0892121 -1273.15 264.213 72.313
lowerback 35.1547 -1.48143 -2.48823
upperback 8.61174 -4.00791 -1.3647
thorax -8.02958 -2.42784 1.42742
lowerneck -1.10787 4.26311 -7.13817
upperneck 5.7549 5.87535 -1.26406
head 1.82033 2.68991 0.902563
rclavicle 4.53229e-014 -1.11816e-014
rhumerus -400.061 10.6525 269.75
rradius 63.3143
rwrist 4.29746
rhand -16.2059 740.077
rfingers 7.12502
rthumb 10.0015 710.334
lclavicle 4.53229e-014 -1.11816e-014
lhumerus -391.003 -14.0157 -273.04
lradius 101.491
lwrist 7.43204
lhand -22.5294 -734.946
lfingers 7.12502
lthumb 3.89755 14.9986
rfemur -1.3016 -14.392 1.42791
rtibia 77.0779
rfoot 367.903 16.7169
rtoes 0.629747
lfemur -28.7106 -2.94323 -14.2935
ltibia 109.244
lfoot 26.5784 -0.101362
ltoes 1.44685
313
root 21.9761 1.28769 -0.0857004 -1273.51 264.179 72.8069
lowerback 34.9439 -1.49549 -2.56107
upperback 8.60153 -4.02919 -1.34873
thorax -8.08065 -2.42939 1.50585
lowerneck -1.45103 4.16125 -7.19891
upperneck 5.78065 5.768 -1.06401
head 1.88564 2.64031 0.985874
rclavicle -4.45278e-014 4.54223e-014
rhumerus -399.877 10.1158 270.084
rradius 62.0022
rwrist 4.79322
rhand -17.4457 739.9
rfingers 7.12502
rthumb 8.80528 710.104
lclavicle -4.45278e-014 4.54223e-014
lhumerus -391.393 -13.4586 -272.799
lradius 100.484
lwrist 7.03441
lhand -22.6656 -734.687
lfingers 7.12502
lthumb 3.76607 15.2599
rfemur -1.4917 -14.3556 1.47528
rtibia 77.1519
rfoot 368.262 16.3733
rtoes 0.911955
lfemur -28.2349 -3.56288 -14.5463
ltibia 108.042
lfoot 26.3859 0.0970119
ltoes 1.96801
